<svg width="16" height="17" viewBox="0 0 16 17" fill="none" xmlns="http://www.w3.org/2000/svg">
  <path d="M8 11.1667C8.20713 11.1607 8.39653 11.0832 8.55047 10.9162L12.2987 7.03808C12.429 6.90687 12.5 6.73988 12.5 6.54306C12.5 6.14944 12.1922 5.83334 11.8016 5.83334C11.6122 5.83334 11.4287 5.91088 11.2925 6.04805L8.00593 9.46694L4.70744 6.04805C4.57131 5.91684 4.39374 5.83334 4.19842 5.83334C3.80778 5.83334 3.5 6.14944 3.5 6.54306C3.5 6.73988 3.57103 6.90687 3.70124 7.03808L7.45547 10.9162C7.61527 11.0832 7.79287 11.1667 8 11.1667Z" fill="#7E818C" />
</svg>