<svg width="25" height="25" viewBox="0 0 25 25" fill="none" xmlns="http://www.w3.org/2000/svg">
  <g opacity="0.87">
    <path fill-rule="evenodd" clip-rule="evenodd" d="M9.27502 7C9.27502 5.38779 10.5152 4 12.275 4C14.0348 4 15.275 5.38779 15.275 7V8H9.27502V7ZM7.77502 9.5V12H9.27502V9.5H15.275V12H16.775V9.5H18.775V20.25C18.775 20.6642 18.4392 21 18.025 21H6.52502C6.11081 21 5.77502 20.6642 5.77502 20.25V9.5H7.77502ZM7.77502 8V7C7.77502 4.61221 9.63486 2.5 12.275 2.5C14.9152 2.5 16.775 4.61221 16.775 7V8H19.525H20.275V8.75V20.25C20.275 21.4926 19.2676 22.5 18.025 22.5H6.52502C5.28238 22.5 4.27502 21.4926 4.27502 20.25V8.75V8H5.02502H7.77502Z" fill="#1F2026" />
  </g>
</svg>