<svg width="19" height="13" viewBox="0 0 19 13" fill="none" xmlns="http://www.w3.org/2000/svg">
  <mask id="path-1-inside-1_2_67" fill="white">
    <path d="M0.190002 2.5C0.190002 1.39543 1.08543 0.5 2.19 0.5H16.19C17.2946 0.5 18.19 1.39543 18.19 2.5V10.5C18.19 11.6046 17.2946 12.5 16.19 12.5H2.19C1.08543 12.5 0.190002 11.6046 0.190002 10.5V2.5Z" />
  </mask>
  <path d="M0.190002 2.5C0.190002 1.39543 1.08543 0.5 2.19 0.5H16.19C17.2946 0.5 18.19 1.39543 18.19 2.5V10.5C18.19 11.6046 17.2946 12.5 16.19 12.5H2.19C1.08543 12.5 0.190002 11.6046 0.190002 10.5V2.5Z" fill="#7F4DFF" />
  <path d="M2.19 0.5V2.5H16.19V0.5V-1.5H2.19V0.5ZM18.19 2.5H16.19V10.5H18.19H20.19V2.5H18.19ZM16.19 12.5V10.5H2.19V12.5V14.5H16.19V12.5ZM0.190002 10.5H2.19V2.5H0.190002H-1.81V10.5H0.190002ZM2.19 12.5V10.5H2.19H0.190002H-1.81C-1.81 12.7091 -0.0191369 14.5 2.19 14.5V12.5ZM18.19 10.5H16.19V12.5V14.5C18.3991 14.5 20.19 12.7091 20.19 10.5H18.19ZM16.19 0.5V2.5H18.19H20.19C20.19 0.290861 18.3991 -1.5 16.19 -1.5V0.5ZM2.19 0.5V-1.5C-0.0191368 -1.5 -1.81 0.290862 -1.81 2.5H0.190002H2.19V2.5V0.5Z" fill="#7F4DFF" mask="url(#path-1-inside-1_2_67)" />
  <rect x="2.19" y="2.5" width="14" height="8" rx="1" fill="#F0F2F5" />
</svg>