<svg width="20" height="21" viewBox="0 0 20 21" fill="none" xmlns="http://www.w3.org/2000/svg">
  <path fill-rule="evenodd" clip-rule="evenodd" d="M10.0007 2.79169C6.66393 2.79169 3.95898 5.49663 3.95898 8.83335C3.95898 10.4761 4.70055 12.009 5.91249 13.5827C6.93437 14.9096 8.24233 16.2069 9.63348 17.5867C9.75528 17.7075 9.87771 17.8289 10.0007 17.9511C10.1236 17.8289 10.246 17.7075 10.3678 17.5867C11.759 16.2069 13.0669 14.9096 14.0888 13.5827C15.3008 12.009 16.0423 10.4761 16.0423 8.83335C16.0423 5.49663 13.3374 2.79169 10.0007 2.79169ZM2.70898 8.83335C2.70898 4.80628 5.97357 1.54169 10.0007 1.54169C14.0277 1.54169 17.2923 4.80628 17.2923 8.83335C17.2923 10.8725 16.3672 12.6729 15.0792 14.3454C14.0015 15.7447 12.6223 17.1121 11.2323 18.4902C10.9688 18.7514 10.7049 19.013 10.4426 19.2753C10.1985 19.5194 9.80279 19.5194 9.55871 19.2753C9.29642 19.013 9.03254 18.7514 8.76904 18.4902C7.37904 17.1121 5.99977 15.7447 4.92214 14.3454C3.63409 12.6729 2.70898 10.8725 2.70898 8.83335ZM10.0007 6.95835C8.96512 6.95835 8.12565 7.79782 8.12565 8.83335C8.12565 9.86889 8.96512 10.7084 10.0007 10.7084C11.0362 10.7084 11.8757 9.86889 11.8757 8.83335C11.8757 7.79782 11.0362 6.95835 10.0007 6.95835ZM6.87565 8.83335C6.87565 7.10746 8.27476 5.70835 10.0007 5.70835C11.7265 5.70835 13.1257 7.10746 13.1257 8.83335C13.1257 10.5592 11.7265 11.9584 10.0007 11.9584C8.27476 11.9584 6.87565 10.5592 6.87565 8.83335Z" fill="#1F2026" />
</svg>