<svg width="25" height="25" viewBox="0 0 25 25" fill="none" xmlns="http://www.w3.org/2000/svg">
  <path fill-rule="evenodd" clip-rule="evenodd" d="M12.62 3.5C10.4109 3.5 8.61999 5.29086 8.61999 7.5V8.5C8.61999 10.7091 10.4109 12.5 12.62 12.5C14.8291 12.5 16.62 10.7091 16.62 8.5V7.5C16.62 5.29086 14.8291 3.5 12.62 3.5ZM10.12 7.5C10.12 6.11929 11.2393 5 12.62 5C14.0007 5 15.12 6.11929 15.12 7.5V8.5C15.12 9.88071 14.0007 11 12.62 11C11.2393 11 10.12 9.88071 10.12 8.5V7.5ZM6.12231 19.8686C6.5932 16.7577 9.63802 15 12.6222 15C15.6058 15 18.651 16.7577 19.1219 19.8686C19.1246 19.8866 19.1225 19.8972 19.12 19.9048C19.117 19.9137 19.1103 19.9269 19.0959 19.942C19.0653 19.9741 19.0094 20.0039 18.9371 20.0039H6.30717C6.23486 20.0039 6.17897 19.9741 6.14837 19.942C6.13393 19.9269 6.12725 19.9137 6.12426 19.9048C6.12173 19.8972 6.1196 19.8865 6.12231 19.8686ZM12.6222 13.5C9.1932 13.5 5.26036 15.5404 4.63921 19.6441C4.47623 20.7208 5.37726 21.5039 6.30717 21.5039H18.9371C19.867 21.5039 20.768 20.7208 20.605 19.6441C19.9838 15.5404 16.0506 13.5 12.6222 13.5Z" fill="#1F2026" />
</svg>