<svg width="215" height="33" viewBox="0 0 215 33" fill="none" xmlns="http://www.w3.org/2000/svg">
  <path d="M31.9764 16.4882C31.9764 7.65816 24.8182 0.5 15.9882 0.5C7.15816 0.5 0 7.65816 0 16.4882C0 25.3182 7.15816 32.4764 15.9882 32.4764C24.8182 32.4764 31.9764 25.3182 31.9764 16.4882Z" fill="#FFFF00" />
  <path d="M3.75191 15.2933C3.27968 12.6152 3.04357 11.2761 3.3844 10.1613C3.6842 9.18068 4.28675 8.32016 5.10569 7.70305C6.03669 7.00148 7.37575 6.76537 10.0539 6.29315L18.144 4.86664C20.8221 4.39441 22.1612 4.1583 23.276 4.49913C24.2566 4.79893 25.1171 5.40148 25.7342 6.22042C26.4358 7.15142 26.6719 8.49048 27.1441 11.1686L28.2537 17.4611C28.7259 20.1393 28.962 21.4783 28.6212 22.5931C28.3214 23.5737 27.7188 24.4343 26.8999 25.0514C25.9689 25.7529 24.6298 25.989 21.9517 26.4613L13.8616 27.8878C11.1835 28.36 9.8444 28.5961 8.7296 28.2553C7.74899 27.9555 6.88846 27.3529 6.27135 26.534C5.56979 25.603 5.33367 24.2639 4.86145 21.5858L3.75191 15.2933Z" fill="#7000FF" />
  <path d="M20.5487 11.5839C21.0311 11.6901 21.4979 11.7808 21.9559 11.898C22.4426 12.0219 22.9249 12.1724 23.4072 12.3073C23.4758 12.3272 23.5024 12.3538 23.5024 12.4312C23.5001 13.9379 23.5156 15.4468 23.4957 16.9535C23.4736 18.573 22.9625 20.0376 21.978 21.3252C20.8806 22.7611 19.4447 23.6859 17.6881 24.1063C16.9956 24.2722 16.2898 24.3275 15.5796 24.2855C13.8915 24.1859 12.3959 23.5908 11.1171 22.4868C9.79849 21.3518 8.96661 19.9226 8.63253 18.2101C8.5374 17.7234 8.49979 17.23 8.49979 16.7344C8.49757 15.3074 8.49979 13.8826 8.49536 12.4556C8.49536 12.3604 8.52634 12.3272 8.61262 12.3007C9.533 12.0064 10.4711 11.7741 11.4202 11.6016C11.4291 11.5993 11.4379 11.6016 11.46 11.5993C11.46 11.637 11.46 11.6746 11.46 11.71C11.46 13.4998 11.4534 15.2919 11.4645 17.0818C11.4711 17.9845 11.5928 18.8761 11.9003 19.7323C12.1437 20.4115 12.5043 21.0177 13.0419 21.5089C13.5464 21.9669 14.1371 22.2567 14.7986 22.3983C15.7345 22.5996 16.6681 22.5841 17.5863 22.2943C18.6704 21.9536 19.4226 21.2323 19.9049 20.2168C20.1638 19.6748 20.3187 19.0995 20.416 18.5088C20.5244 17.8517 20.551 17.188 20.551 16.5242C20.551 14.9269 20.551 13.3273 20.551 11.7299C20.5487 11.6878 20.5487 11.648 20.5487 11.5839Z" fill="white" />
  <path d="M17.3163 14.9027C16.4335 14.9027 15.5596 14.9027 14.6813 14.9027C14.6813 12.8452 14.6813 10.7898 14.6813 8.73665C14.9556 8.65036 16.7942 8.64372 17.3163 8.73001C17.3163 10.7876 17.3163 12.8452 17.3163 14.9027Z" fill="white" />
  <path d="M20.5487 11.5839C21.0311 11.6901 21.4979 11.7808 21.9559 11.898C22.4426 12.0219 22.9249 12.1724 23.4072 12.3073C23.4758 12.3272 23.5024 12.3538 23.5024 12.4312C23.5001 13.9379 23.5156 15.4468 23.4957 16.9535C23.4736 18.573 22.9625 20.0376 21.978 21.3252C20.8806 22.7611 19.4447 23.6859 17.6881 24.1063C16.9956 24.2722 16.2898 24.3275 15.5796 24.2855C13.8915 24.1859 12.3959 23.5908 11.1171 22.4868C9.79849 21.3518 8.96661 19.9226 8.63253 18.2101C8.5374 17.7234 8.49979 17.23 8.49979 16.7344C8.49757 15.3074 8.49979 13.8826 8.49536 12.4556C8.49536 12.3604 8.52634 12.3272 8.61262 12.3007C9.533 12.0064 10.4711 11.7741 11.4202 11.6016C11.4291 11.5993 11.4379 11.6016 11.46 11.5993C11.46 11.637 11.46 11.6746 11.46 11.71C11.46 13.4998 11.4534 15.2919 11.4645 17.0818C11.4711 17.9845 11.5928 18.8761 11.9003 19.7323C12.1437 20.4115 12.5043 21.0177 13.0419 21.5089C13.5464 21.9669 14.1371 22.2567 14.7986 22.3983C15.7345 22.5996 16.6681 22.5841 17.5863 22.2943C18.6704 21.9536 19.4226 21.2323 19.9049 20.2168C20.1638 19.6748 20.3187 19.0995 20.416 18.5088C20.5244 17.8517 20.551 17.188 20.551 16.5242C20.551 14.9269 20.551 13.3273 20.551 11.7299C20.5487 11.6878 20.5487 11.648 20.5487 11.5839Z" fill="white" />
  <path d="M17.3163 14.9027C16.4335 14.9027 15.5596 14.9027 14.6813 14.9027C14.6813 12.8452 14.6813 10.7898 14.6813 8.73665C14.9556 8.65036 16.7942 8.64372 17.3163 8.73001C17.3163 10.7876 17.3163 12.8452 17.3163 14.9027Z" fill="white" />
  <path d="M20.5487 11.5839C21.0311 11.6901 21.4979 11.7808 21.9559 11.898C22.4426 12.0219 22.9249 12.1724 23.4072 12.3073C23.4758 12.3272 23.5024 12.3538 23.5024 12.4312C23.5001 13.9379 23.5156 15.4468 23.4957 16.9535C23.4736 18.573 22.9625 20.0376 21.978 21.3252C20.8806 22.7611 19.4447 23.6859 17.6881 24.1063C16.9956 24.2722 16.2898 24.3275 15.5796 24.2855C13.8915 24.1859 12.3959 23.5908 11.1171 22.4868C9.79849 21.3518 8.96661 19.9226 8.63253 18.2101C8.5374 17.7234 8.49979 17.23 8.49979 16.7344C8.49757 15.3074 8.49979 13.8826 8.49536 12.4556C8.49536 12.3604 8.52634 12.3272 8.61262 12.3007C9.533 12.0064 10.4711 11.7741 11.4202 11.6016C11.4291 11.5993 11.4379 11.6016 11.46 11.5993C11.46 11.637 11.46 11.6746 11.46 11.71C11.46 13.4998 11.4534 15.2919 11.4645 17.0818C11.4711 17.9845 11.5928 18.8761 11.9003 19.7323C12.1437 20.4115 12.5043 21.0177 13.0419 21.5089C13.5464 21.9669 14.1371 22.2567 14.7986 22.3983C15.7345 22.5996 16.6681 22.5841 17.5863 22.2943C18.6704 21.9536 19.4226 21.2323 19.9049 20.2168C20.1638 19.6748 20.3187 19.0995 20.416 18.5088C20.5244 17.8517 20.551 17.188 20.551 16.5242C20.551 14.9269 20.551 13.3273 20.551 11.7299C20.5487 11.6878 20.5487 11.648 20.5487 11.5839Z" fill="white" />
  <path d="M17.3163 14.9027C16.4335 14.9027 15.5596 14.9027 14.6813 14.9027C14.6813 12.8452 14.6813 10.7898 14.6813 8.73665C14.9556 8.65036 16.7942 8.64372 17.3163 8.73001C17.3163 10.7876 17.3163 12.8452 17.3163 14.9027Z" fill="white" />
  <path d="M20.5487 11.5839C21.0311 11.6901 21.4979 11.7808 21.9559 11.898C22.4426 12.0219 22.9249 12.1724 23.4072 12.3073C23.4758 12.3272 23.5024 12.3538 23.5024 12.4312C23.5001 13.9379 23.5156 15.4468 23.4957 16.9535C23.4736 18.573 22.9625 20.0376 21.978 21.3252C20.8806 22.7611 19.4447 23.6859 17.6881 24.1063C16.9956 24.2722 16.2898 24.3275 15.5796 24.2855C13.8915 24.1859 12.3959 23.5908 11.1171 22.4868C9.79849 21.3518 8.96661 19.9226 8.63253 18.2101C8.5374 17.7234 8.49979 17.23 8.49979 16.7344C8.49757 15.3074 8.49979 13.8826 8.49536 12.4556C8.49536 12.3604 8.52634 12.3272 8.61262 12.3007C9.533 12.0064 10.4711 11.7741 11.4202 11.6016C11.4291 11.5993 11.4379 11.6016 11.46 11.5993C11.46 11.637 11.46 11.6746 11.46 11.71C11.46 13.4998 11.4534 15.2919 11.4645 17.0818C11.4711 17.9845 11.5928 18.8761 11.9003 19.7323C12.1437 20.4115 12.5043 21.0177 13.0419 21.5089C13.5464 21.9669 14.1371 22.2567 14.7986 22.3983C15.7345 22.5996 16.6681 22.5841 17.5863 22.2943C18.6704 21.9536 19.4226 21.2323 19.9049 20.2168C20.1638 19.6748 20.3187 19.0995 20.416 18.5088C20.5244 17.8517 20.551 17.188 20.551 16.5242C20.551 14.9269 20.551 13.3273 20.551 11.7299C20.5487 11.6878 20.5487 11.648 20.5487 11.5839Z" fill="white" />
  <path d="M17.3163 14.9027C16.4335 14.9027 15.5596 14.9027 14.6813 14.9027C14.6813 12.8452 14.6813 10.7898 14.6813 8.73665C14.9556 8.65036 16.7942 8.64372 17.3163 8.73001C17.3163 10.7876 17.3163 12.8452 17.3163 14.9027Z" fill="white" />
  <path d="M136.192 9.93597C133.804 9.93597 132 10.9097 131.101 12.3772C130.195 10.9097 128.22 9.93597 126.161 9.93597C122.114 9.93597 120.049 12.4938 120.049 15.6688V23.2806H123.829V16.2037C123.829 14.6951 124.631 13.351 126.456 13.351C128.288 13.351 129.235 14.6333 129.235 16.1488V23.2806H133.029V16.1488C133.029 14.6265 133.921 13.351 135.739 13.351C137.571 13.351 138.421 14.6951 138.421 16.2037V23.2806H142.202V15.6688C142.195 12.4938 140.246 9.93597 136.192 9.93597Z" fill="#7000FF" />
  <path d="M159.051 18.6861V10.1897H155.312L155.34 12.2538C154.523 11.04 153.096 9.93597 150.558 9.93597C146.194 9.93597 143.951 13.3236 143.951 16.7249C143.869 20.1673 146.407 23.5892 150.373 23.5892C152.472 23.5892 154.393 22.6566 155.312 21.0177C155.683 22.1011 156.623 23.2875 158.571 23.2875H160.732V20.1125H160.128C159.374 20.1125 159.051 19.8313 159.051 18.6861ZM151.347 20.3113C149.199 20.3113 147.594 18.8301 147.594 16.7523C147.594 14.7019 149.199 13.2481 151.347 13.2481C153.563 13.2481 155.168 14.7019 155.168 16.7523C155.168 18.8301 153.563 20.3113 151.347 20.3113Z" fill="#7000FF" />
  <path d="M163.14 14.6539V23.2806H166.92V17.4929C166.92 15.2505 168.546 13.8104 170.618 13.8104H173.088V9.91537H171.236C168.951 9.91537 167.284 11.8629 166.92 12.9944V12.5966V10.1828H163.14V14.6539Z" fill="#7000FF" />
  <path d="M175.325 23.2806H179.105V16.8688L184.978 23.2806H189.437L183.352 16.5534L188.971 10.1897H184.525L179.105 16.3271V6.1369H175.325V23.2806Z" fill="#7000FF" />
  <path d="M193.862 17.7604C193.862 19.2004 194.61 20.6542 197.025 20.6542C199.241 20.6542 199.563 19.3239 199.563 19.3239H203.714C203.714 19.3239 203.33 23.5892 197.025 23.5892C192.634 23.5892 189.883 21.1342 189.883 16.7523C189.883 12.3635 192.634 9.93597 196.984 9.93597C201.272 9.93597 204.037 12.3635 204.037 16.7523C204.037 17.2323 203.954 17.7672 203.954 17.7672H193.862V17.7604ZM193.91 15.4562H199.996C199.996 14.3865 199.378 12.871 196.977 12.871C194.61 12.871 193.91 14.3933 193.91 15.4562Z" fill="#7000FF" />
  <path d="M212.661 19.9959C211.364 19.9959 210.897 19.4198 210.897 17.5957V12.9807H214.993V9.94281H210.897V7.33011H208.853L205.21 10.8137V12.9875H207.117V18.0963C207.117 21.7651 208.908 23.308 212.661 23.308H215V20.0027H212.661V19.9959Z" fill="#7000FF" />
  <path d="M83.6802 16.9854C83.6802 19.0564 82.507 20.0164 80.7644 20.0164C79.0218 20.0164 77.8898 19.077 77.8898 16.9854V10.1417H74.1301V17.1157C74.1301 21.6622 77.9309 23.4383 80.7918 23.4383C83.6527 23.4383 87.4604 21.6554 87.4604 17.1157V10.1417H83.7007L83.6802 16.9854Z" fill="#7000FF" />
  <path d="M70.9468 13.3167V10.1417H58.728V13.3167H65.966L58.4398 20.0233V23.1983H71.4133V20.0233H63.4344L70.9468 13.3167Z" fill="#7000FF" />
  <path d="M106.286 9.89484C103.905 9.89484 102.108 10.8617 101.216 12.3361C100.31 10.8617 98.3414 9.89484 96.2969 9.89484C92.2766 9.89484 90.1841 12.4527 90.1841 15.6208V23.1983H93.9437V16.1489C93.9437 14.6334 94.7395 13.303 96.5645 13.303C96.935 13.2824 97.3054 13.3373 97.6553 13.4676C98.0052 13.5979 98.3208 13.8036 98.5815 14.071C98.8422 14.3316 99.048 14.6539 99.1784 15.0037C99.3088 15.3534 99.3636 15.7237 99.3431 16.094V23.1983H103.103V16.094C103.103 14.5785 103.995 13.303 105.799 13.303C107.603 13.303 108.475 14.6334 108.475 16.1489V23.1983H112.234V15.6277C112.234 12.4664 110.293 9.90169 106.252 9.90169L106.286 9.89484Z" fill="#7000FF" />
  <path d="M52.1966 16.9854C52.1966 19.0564 51.0235 20.0164 49.2946 20.0164C47.5657 20.0164 46.4062 19.077 46.4062 16.9854V10.1417H42.6466V17.1157C42.6466 21.6622 46.4337 23.4383 49.3083 23.4383C52.1829 23.4383 55.9631 21.6554 55.9631 17.1157V10.1417H52.2035L52.1966 16.9854Z" fill="#7000FF" />
</svg>