<svg width="25" height="25" viewBox="0 0 25 25" fill="none" xmlns="http://www.w3.org/2000/svg">
  <path fill-rule="evenodd" clip-rule="evenodd" d="M16.345 11C16.345 13.7614 14.1064 16 11.345 16C8.58358 16 6.345 13.7614 6.345 11C6.345 8.23858 8.58358 6 11.345 6C14.1064 6 16.345 8.23858 16.345 11ZM15.1848 16.2451C14.109 17.0341 12.7814 17.5 11.345 17.5C7.75515 17.5 4.845 14.5899 4.845 11C4.845 7.41015 7.75515 4.5 11.345 4.5C14.9349 4.5 17.845 7.41015 17.845 11C17.845 12.4364 17.3791 13.764 16.5901 14.8398L20.554 18.8036C20.942 19.1917 20.942 19.8209 20.554 20.209C20.1659 20.597 19.5367 20.597 19.1486 20.209L15.1848 16.2451Z" fill="#4D4F59" />
</svg>