<svg width="25" height="25" viewBox="0 0 25 25" fill="none" xmlns="http://www.w3.org/2000/svg">
  <path fill-rule="evenodd" clip-rule="evenodd" d="M8.42499 6C6.19434 6 4.42499 7.80906 4.42499 10C4.42499 10.9282 4.80183 11.9436 5.47369 13.0105C6.14191 14.0716 7.06647 15.1274 8.07626 16.1219C9.48268 17.507 10.9568 18.6879 12.0958 19.6003C12.3984 19.8427 12.6773 20.0661 12.925 20.2694C13.1727 20.0661 13.4516 19.8427 13.7542 19.6003C14.8932 18.6879 16.3673 17.507 17.7737 16.1219C18.7835 15.1274 19.7081 14.0716 20.3763 13.0105C21.0482 11.9436 21.425 10.9282 21.425 10C21.425 7.80898 19.6564 6 17.425 6C15.2723 6 13.9988 7.70226 13.6512 8.24742C13.3139 8.77655 12.5361 8.77653 12.1988 8.24742C11.8512 7.70225 10.5777 6 8.42499 6ZM2.92499 10C2.92499 6.99094 5.35564 4.5 8.42499 4.5C10.6564 4.5 12.1499 5.80207 12.925 6.71581C13.7001 5.80207 15.1936 4.5 17.425 4.5C20.4952 4.5 22.925 6.99102 22.925 10C22.925 11.3218 22.3956 12.6189 21.6456 13.8098C20.8919 15.0066 19.879 16.1539 18.8263 17.1906C17.3679 18.6269 15.733 19.9384 14.5752 20.8672C14.0899 21.2565 13.6884 21.5786 13.4189 21.8144C13.1361 22.0619 12.7139 22.0619 12.4311 21.8144C12.1616 21.5786 11.7601 21.2565 11.2748 20.8672C10.117 19.9384 8.48211 18.6269 7.02372 17.1906C5.97101 16.1539 4.95807 15.0066 4.20441 13.8098C3.4544 12.6189 2.92499 11.3218 2.92499 10Z" fill="#1F2026" />
</svg>